<?xml version="1.0" encoding="utf-8"?>
<!-- Generator: Adobe Illustrator 25.1.0, SVG Export Plug-In . SVG Version: 6.00 Build 0)  -->
<svg version="1.1" id="Ebene_2" xmlns="http://www.w3.org/2000/svg" xmlns:xlink="http://www.w3.org/1999/xlink" x="0px" y="0px"
	 viewBox="0 0 32 32" style="enable-background:new 0 0 32 32;" xml:space="preserve">
<style type="text/css">
	.st0{fill:#FFFFFF;stroke:#000000;stroke-miterlimit:10;}
	.st1{fill:none;stroke:#000000;stroke-miterlimit:10;}
</style>
<g>
	<path class="st0" d="M25.8,29.1H6.2c-1.6,0-2.8-1.3-2.8-2.8V6.7c0-1.6,1.3-2.8,2.8-2.8h19.7c1.6,0,2.8,1.3,2.8,2.8v19.7
		C28.7,27.9,27.4,29.1,25.8,29.1z"/>
	<line class="st1" x1="3.3" y1="10.4" x2="28.7" y2="10.4"/>
	<circle class="st0" cx="16" cy="16.5" r="7.2"/>
	<circle class="st0" cx="16" cy="16.5" r="4.8"/>
	<circle class="st0" cx="24.6" cy="7.1" r="1.4"/>
	<rect x="6.1" y="2.4" class="st0" width="3.9" height="1.4"/>
	<rect x="11.4" y="2.4" class="st0" width="3.9" height="1.4"/>
	
		<rect x="27.4" y="11.6" transform="matrix(4.634454e-13 1 -1 4.634454e-13 41.7202 -17.0404)" class="st0" width="3.9" height="1.4"/>
	<line class="st1" x1="5.5" y1="5.9" x2="8.9" y2="5.9"/>
	<line class="st1" x1="5.5" y1="7.3" x2="8.9" y2="7.3"/>
	<line class="st1" x1="5.5" y1="8.8" x2="8.9" y2="8.8"/>
</g>
</svg>
