<?xml version="1.0" encoding="utf-8"?>
<!-- Generator: Adobe Illustrator 25.1.0, SVG Export Plug-In . SVG Version: 6.00 Build 0)  -->
<svg version="1.1" id="Ebene_2" xmlns="http://www.w3.org/2000/svg" xmlns:xlink="http://www.w3.org/1999/xlink" x="0px" y="0px"
	 viewBox="0 0 32 32" style="enable-background:new 0 0 32 32;" xml:space="preserve">
<style type="text/css">
	.st0{fill:#999999;}
	.st1{fill:#755941;}
	.st2{fill:#FFD671;}
	.st3{fill:#B1DBE5;}
	.st4{fill:#CECECE;}
	.st5{fill:none;stroke:#000000;stroke-miterlimit:10;}
</style>
<g>
	<g id="XMLID_1_">
		<g>
			<rect x="28.7" y="10.4" class="st0" width="1.4" height="3.9"/>
			<path class="st1" d="M28.7,14.3v12c0,1.6-1.3,2.8-2.8,2.8H6.2c-1.6,0-2.8-1.3-2.8-2.8V10.4h8.8c-2,1.3-3.4,3.5-3.4,6.1
				c0,4,3.2,7.2,7.2,7.2s7.2-3.2,7.2-7.2c0-2.6-1.4-4.8-3.4-6.1h8.8V14.3z"/>
			<path class="st2" d="M24.6,5.7c0.8,0,1.4,0.6,1.4,1.4c0,0.8-0.6,1.4-1.4,1.4s-1.4-0.6-1.4-1.4C23.2,6.3,23.9,5.7,24.6,5.7z"/>
			<circle class="st3" cx="16" cy="16.5" r="4.8"/>
			<path class="st0" d="M16,9.3c1.4,0,2.7,0.4,3.9,1.1h-7.7C13.3,9.7,14.6,9.3,16,9.3z"/>
			<rect x="11.4" y="2.4" class="st0" width="3.9" height="1.4"/>
			<path class="st0" d="M11.2,16.5c0,2.7,2.2,4.8,4.8,4.8s4.8-2.2,4.8-4.8c0-2.7-2.2-4.8-4.8-4.8S11.2,13.8,11.2,16.5z M16,23.7
				c-4,0-7.2-3.2-7.2-7.2c0-2.6,1.3-4.8,3.4-6.1h7.7c2,1.3,3.4,3.5,3.4,6.1C23.2,20.5,20,23.7,16,23.7z"/>
			<rect x="6.1" y="2.4" class="st0" width="3.9" height="1.4"/>
			<path class="st4" d="M26,7.1c0-0.8-0.6-1.4-1.4-1.4s-1.4,0.6-1.4,1.4c0,0.8,0.6,1.4,1.4,1.4S26,7.8,26,7.1z M10,3.8h1.4h3.9h10.5
				c1.6,0,2.8,1.3,2.8,2.8v3.7h-8.8c-1.1-0.7-2.4-1.1-3.9-1.1c-1.4,0-2.7,0.4-3.9,1.1H3.3V6.7c0-1.5,1.2-2.8,2.7-2.8H10z"/>
		</g>
		<g>
			<line class="st5" x1="10" y1="3.8" x2="11.4" y2="3.8"/>
			<path class="st5" d="M28.7,14.3v12c0,1.6-1.3,2.8-2.8,2.8H6.2c-1.6,0-2.8-1.3-2.8-2.8V10.4V6.7c0-1.5,1.2-2.8,2.7-2.8"/>
			<path class="st5" d="M15.4,3.8h10.5c1.6,0,2.8,1.3,2.8,2.8v3.7"/>
			<line class="st5" x1="19.9" y1="10.4" x2="28.7" y2="10.4"/>
			<line class="st5" x1="3.3" y1="10.4" x2="12.1" y2="10.4"/>
			<path class="st5" d="M12.1,10.4c-2,1.3-3.4,3.5-3.4,6.1c0,4,3.2,7.2,7.2,7.2s7.2-3.2,7.2-7.2c0-2.6-1.4-4.8-3.4-6.1
				c-1.1-0.7-2.4-1.1-3.9-1.1C14.6,9.3,13.3,9.7,12.1,10.4z"/>
			<circle class="st5" cx="16" cy="16.5" r="4.8"/>
			<path class="st5" d="M26,7.1c0-0.8-0.6-1.4-1.4-1.4s-1.4,0.6-1.4,1.4c0,0.8,0.6,1.4,1.4,1.4S26,7.8,26,7.1z"/>
			<rect x="6.1" y="2.4" class="st5" width="3.9" height="1.4"/>
			<rect x="11.4" y="2.4" class="st5" width="3.9" height="1.4"/>
			<rect x="28.7" y="10.4" class="st5" width="1.4" height="3.9"/>
			<line class="st5" x1="5.5" y1="5.9" x2="8.9" y2="5.9"/>
			<line class="st5" x1="5.5" y1="7.3" x2="8.9" y2="7.3"/>
			<line class="st5" x1="5.5" y1="8.8" x2="8.9" y2="8.8"/>
		</g>
	</g>
</g>
</svg>
